<?xml version="1.0" encoding="utf-8"?>
<!-- Generator: Adobe Illustrator 24.0.0, SVG Export Plug-In . SVG Version: 6.00 Build 0)  -->
<svg version="1.1" id="Capa_1" xmlns="http://www.w3.org/2000/svg" xmlns:xlink="http://www.w3.org/1999/xlink" x="0px" y="0px"
	 viewBox="0 0 112.1 112.1" style="enable-background:new 0 0 112.1 112.1;" xml:space="preserve">
<style type="text/css">
	.st0{fill:#5E4EA6;}
</style>
<g>
	<path class="st0" d="M83.6,8.1c8.1,4.4,14.4,10.7,19,19s6.9,18,6.9,29.1s-2.3,20.8-6.9,29c-4.6,8.2-10.9,14.5-19,18.9
		s-17.2,6.6-27.5,6.6c-10.2,0-19.4-2.2-27.5-6.6c-8.1-4.4-14.5-10.7-19.1-18.9c-4.7-8.2-7-17.9-7-29s2.3-20.8,7-29.1
		s11-14.6,19.1-19s17.2-6.6,27.5-6.6C66.5,1.5,75.5,3.7,83.6,8.1z M38.6,21.3c-5.4,2.8-9.7,7.2-13,13.1s-4.9,13.2-4.9,21.8
		c0,8.5,1.7,15.8,4.9,21.6c3.3,5.9,7.6,10.3,13,13.1s11.2,4.3,17.6,4.3c6.3,0,12.2-1.4,17.6-4.3c5.4-2.8,9.7-7.2,13-13.1
		s4.9-13.1,4.9-21.6c0-8.7-1.6-15.9-4.9-21.8c-3.3-5.9-7.6-10.3-13-13.1c-5.4-2.8-11.2-4.3-17.6-4.3C49.8,17,44,18.4,38.6,21.3z"/>
	<g>
		<path class="st0" d="M56,33c2,0.8,4.1,1.2,6.2,1.2c2.2,0,4.3-0.4,6.2-1.2c0.6,4.3,2.8,8.2,6.2,10.8c-3.4,2.6-5.7,6.5-6.2,10.8
			c-2-0.8-4.1-1.2-6.2-1.2c-2.2,0-4.3,0.4-6.2,1.2c-0.6-4.3-2.8-8.2-6.2-10.8C53.3,41.1,55.5,37.3,56,33 M70.6,24
			c-1.1,0-2.2,0.3-3.1,1c-1.6,1.2-3.4,1.7-5.3,1.7c-1.9,0-3.7-0.6-5.3-1.7c-0.9-0.7-2-1-3.1-1c-0.9,0-1.8,0.2-2.6,0.7
			c-1.8,1-2.8,3-2.6,5.1c0.4,3.9-1.7,7.6-5.3,9.2c-1.9,0.8-3.1,2.7-3.1,4.8c0,2.1,1.2,3.9,3.1,4.8c3.6,1.6,5.7,5.3,5.3,9.2
			c-0.2,2.1,0.8,4,2.6,5.1c0.8,0.5,1.7,0.7,2.6,0.7c1.1,0,2.2-0.3,3.1-1c1.6-1.2,3.4-1.7,5.3-1.7c1.9,0,3.7,0.6,5.3,1.7
			c0.9,0.7,2,1,3.1,1c0.9,0,1.8-0.2,2.6-0.7c1.8-1,2.8-3,2.6-5.1c-0.4-3.9,1.7-7.6,5.3-9.2c1.9-0.8,3.1-2.7,3.1-4.8
			c0-2.1-1.2-3.9-3.1-4.8c-3.6-1.6-5.7-5.3-5.3-9.2c0.2-2.1-0.8-4-2.6-5.1C72.5,24.4,71.5,24,70.6,24L70.6,24z"/>
		<path class="st0" d="M62.3,39.9c-1,0-2.1,0.4-2.8,1.2c-0.7,0.7-1.2,1.8-1.2,2.8s0.4,2.1,1.2,2.8c0.7,0.7,1.8,1.2,2.8,1.2
			c1.1,0,2.1-0.4,2.8-1.2c0.7-0.7,1.2-1.8,1.2-2.8c0-1.1-0.4-2.1-1.2-2.8C64.3,40.3,63.3,39.9,62.3,39.9z"/>
	</g>
</g>
</svg>
