<?xml version="1.0" encoding="utf-8"?>
<!-- Generator: Adobe Illustrator 24.0.0, SVG Export Plug-In . SVG Version: 6.00 Build 0)  -->
<svg version="1.1" id="Capa_1" xmlns="http://www.w3.org/2000/svg" xmlns:xlink="http://www.w3.org/1999/xlink" x="0px" y="0px"
	 viewBox="0 0 641.1 241.7" style="enable-background:new 0 0 641.1 241.7;" xml:space="preserve">
<style type="text/css">
	.st0{fill:#FFFFFF;}
</style>
<g>
	<g>
		<path class="st0" d="M93.3,56.1c7.4,4.4,13.2,10.7,17.4,19c4.2,8.3,6.3,18,6.3,29.1c0,11.1-2.1,20.8-6.3,29
			c-4.2,8.2-10,14.5-17.4,18.9c-7.4,4.4-15.8,6.6-25.2,6.6c-10.4,0-19.1-2.6-26.3-7.9c-7.2-5.2-12.1-12.1-14.8-20.7v27.2H9.2V13.8
			h17.7V78c2.7-8.5,7.7-15.4,14.8-20.7c7.2-5.2,15.9-7.9,26.3-7.9C77.5,49.5,85.9,51.7,93.3,56.1z M44.4,70
			c-5.6,3.2-9.9,7.7-13,13.7c-3.1,6-4.7,12.8-4.7,20.6c0,7.8,1.6,14.6,4.7,20.5c3.1,5.9,7.4,10.4,13,13.7c5.6,3.2,11.8,4.9,18.6,4.9
			c11,0,19.8-3.5,26.3-10.4c6.5-6.9,9.8-16.5,9.8-28.6c0-12.2-3.3-21.7-9.8-28.6C82.7,68.7,74,65.2,63,65.2
			C56.1,65.2,49.9,66.8,44.4,70z"/>
		<path class="st0" d="M215.8,56.1c8.1,4.4,14.4,10.7,19,19c4.6,8.3,6.9,18,6.9,29.1c0,11.1-2.3,20.8-6.9,29
			c-4.6,8.2-10.9,14.5-19,18.9c-8.1,4.4-17.2,6.6-27.5,6.6c-10.2,0-19.4-2.2-27.5-6.6c-8.1-4.4-14.5-10.7-19.1-18.9
			c-4.7-8.2-7-17.9-7-29c0-11.1,2.3-20.8,7-29.1c4.7-8.3,11-14.6,19.1-19c8.1-4.4,17.2-6.6,27.5-6.6
			C198.6,49.5,207.7,51.7,215.8,56.1z M170.8,69.3c-5.4,2.8-9.7,7.2-13,13.1c-3.3,5.9-4.9,13.2-4.9,21.8c0,8.5,1.6,15.8,4.9,21.6
			c3.3,5.9,7.6,10.3,13,13.1c5.4,2.8,11.2,4.3,17.6,4.3c6.3,0,12.2-1.4,17.6-4.3c5.4-2.8,9.7-7.2,13-13.1c3.3-5.9,4.9-13.1,4.9-21.6
			c0-8.7-1.6-15.9-4.9-21.8c-3.3-5.9-7.6-10.3-13-13.1c-5.4-2.8-11.2-4.3-17.6-4.3C182,65,176.1,66.4,170.8,69.3z"/>
		<path class="st0" d="M315.6,141.9v15.5h-13.2c-10.9,0-19-2.6-24.4-7.8c-5.4-5.2-8.1-13.8-8.1-26V66.2h-15.9V50.9H270V24.3h17.9
			v26.6h27.6v15.3h-27.6V124c0,6.9,1.3,11.5,3.8,14.1c2.5,2.5,6.9,3.8,13.1,3.8H315.6z"/>
		<path class="st0" d="M413,56.1c8.1,4.4,14.4,10.7,19,19c4.6,8.3,6.9,18,6.9,29.1c0,11.1-2.3,20.8-6.9,29
			c-4.6,8.2-10.9,14.5-19,18.9c-8.1,4.4-17.2,6.6-27.5,6.6c-10.2,0-19.4-2.2-27.5-6.6c-8.1-4.4-14.5-10.7-19.1-18.9
			c-4.7-8.2-7-17.9-7-29c0-11.1,2.3-20.8,7-29.1c4.7-8.3,11-14.6,19.1-19c8.1-4.4,17.2-6.6,27.5-6.6C395.7,49.5,404.9,51.7,413,56.1
			z M367.9,69.3c-5.4,2.8-9.7,7.2-13,13.1c-3.3,5.9-4.9,13.2-4.9,21.8c0,8.5,1.7,15.8,4.9,21.6c3.3,5.9,7.6,10.3,13,13.1
			c5.4,2.8,11.2,4.3,17.6,4.3c6.3,0,12.2-1.4,17.6-4.3c5.4-2.8,9.7-7.2,13-13.1c3.3-5.9,4.9-13.1,4.9-21.6c0-8.7-1.6-15.9-4.9-21.8
			c-3.3-5.9-7.6-10.3-13-13.1c-5.4-2.8-11.2-4.3-17.6-4.3C379.2,65,373.3,66.4,367.9,69.3z"/>
		<path class="st0" d="M512.8,141.9v15.5h-13.2c-10.9,0-19-2.6-24.4-7.8c-5.4-5.2-8.1-13.8-8.1-26V66.2h-15.9V50.9h15.9V24.3H485
			v26.6h27.6v15.3H485V124c0,6.9,1.3,11.5,3.8,14.1c2.5,2.5,6.9,3.8,13.1,3.8H512.8z"/>
		<path class="st0" d="M610.1,56.1c8.1,4.4,14.4,10.7,19,19c4.6,8.3,6.9,18,6.9,29.1c0,11.1-2.3,20.8-6.9,29
			c-4.6,8.2-10.9,14.5-19,18.9c-8.1,4.4-17.2,6.6-27.5,6.6c-10.2,0-19.4-2.2-27.5-6.6c-8.1-4.4-14.5-10.7-19.1-18.9
			c-4.7-8.2-7-17.9-7-29c0-11.1,2.3-20.8,7-29.1c4.7-8.3,11-14.6,19.1-19c8.1-4.4,17.2-6.6,27.5-6.6C592.9,49.5,602,51.7,610.1,56.1
			z M565.1,69.3c-5.4,2.8-9.7,7.2-13,13.1c-3.3,5.9-4.9,13.2-4.9,21.8c0,8.5,1.7,15.8,4.9,21.6c3.3,5.9,7.6,10.3,13,13.1
			c5.4,2.8,11.2,4.3,17.6,4.3c6.3,0,12.2-1.4,17.6-4.3c5.4-2.8,9.7-7.2,13-13.1c3.3-5.9,4.9-13.1,4.9-21.6c0-8.7-1.6-15.9-4.9-21.8
			c-3.3-5.9-7.6-10.3-13-13.1c-5.4-2.8-11.2-4.3-17.6-4.3C576.3,65,570.4,66.4,565.1,69.3z"/>
	</g>
	<g>
		<path class="st0" d="M14.3,225.9c-2.6-1.1-4.7-2.8-6.3-4.9l5.8-7c2.5,3.3,5.3,5,8.4,5c4.3,0,6.4-2.5,6.4-7.5V190H12.7v-8.4H39
			v29.4c0,5.6-1.4,9.7-4.1,12.5c-2.8,2.8-6.8,4.2-12.2,4.2C19.7,227.6,16.9,227.1,14.3,225.9z"/>
		<path class="st0" d="M87.7,222.3c-3.6-3.6-5.4-8.7-5.4-15.3v-25.4h10.5v25c0,8.1,3.4,12.2,10.1,12.2c3.3,0,5.8-1,7.5-2.9
			c1.7-2,2.6-5,2.6-9.2v-25h10.3v25.4c0,6.6-1.8,11.8-5.4,15.3c-3.6,3.6-8.6,5.4-15.1,5.4C96.4,227.6,91.3,225.8,87.7,222.3z"/>
		<path class="st0" d="M167,181.6h10.5v45.3H167V181.6z"/>
		<path class="st0" d="M230.7,224.6c-3.7-2-6.7-4.8-8.8-8.3c-2.1-3.6-3.2-7.6-3.2-12.1c0-4.5,1.1-8.5,3.2-12.1
			c2.1-3.6,5.1-6.3,8.8-8.3c3.7-2,7.9-3,12.6-3c3.9,0,7.5,0.7,10.6,2.1c3.2,1.4,5.8,3.4,8,6l-6.7,6.2c-3.1-3.5-6.9-5.3-11.4-5.3
			c-2.8,0-5.3,0.6-7.5,1.8c-2.2,1.2-3.9,2.9-5.1,5.1c-1.2,2.2-1.8,4.7-1.8,7.5c0,2.8,0.6,5.3,1.8,7.5c1.2,2.2,2.9,3.9,5.1,5.1
			c2.2,1.2,4.7,1.8,7.5,1.8c4.5,0,8.3-1.8,11.4-5.4l6.7,6.2c-2.2,2.6-4.8,4.6-8,6c-3.2,1.4-6.7,2.1-10.7,2.1
			C238.6,227.6,234.4,226.6,230.7,224.6z"/>
		<path class="st0" d="M337.3,218.4v8.4h-35.1v-45.3h34.2v8.4h-23.8v9.8h21v8.1h-21v10.5H337.3z"/>
		<path class="st0" d="M469.9,207.4c1.5,1.9,2.2,4.3,2.2,7.1c0,4-1.5,7-4.6,9.2c-3.1,2.1-7.6,3.2-13.5,3.2h-23.4v-45.3h22.1
			c5.5,0,9.8,1.1,12.7,3.2c3,2.1,4.4,5,4.4,8.6c0,2.2-0.5,4.2-1.6,5.9c-1.1,1.7-2.5,3.1-4.4,4.1
			C466.4,204.1,468.4,205.5,469.9,207.4z M441,189.5v10.7h10.4c2.6,0,4.5-0.5,5.9-1.4c1.3-0.9,2-2.2,2-4s-0.7-3.1-2-4
			c-1.3-0.9-3.3-1.3-5.9-1.3H441z M459.4,217.6c1.4-0.9,2.1-2.3,2.1-4.2c0-3.8-2.8-5.6-8.3-5.6H441V219h12.2
			C456,219,458,218.5,459.4,217.6z"/>
		<path class="st0" d="M543.2,217.2h-21l-4,9.7h-10.7l20.2-45.3h10.3l20.2,45.3h-11L543.2,217.2z M539.9,209.2l-7.2-17.3l-7.2,17.3
			H539.9z"/>
		<path class="st0" d="M625.1,226.9l-8.7-12.6h-0.5h-9.1v12.6h-10.5v-45.3h19.6c4,0,7.5,0.7,10.4,2c3,1.3,5.2,3.2,6.8,5.7
			c1.6,2.5,2.4,5.4,2.4,8.7c0,3.4-0.8,6.3-2.4,8.7c-1.6,2.4-3.9,4.3-6.9,5.6l10.2,14.6H625.1z M622.4,192.2c-1.6-1.4-4-2-7.2-2h-8.5
			v15.8h8.5c3.1,0,5.5-0.7,7.2-2.1c1.6-1.4,2.5-3.3,2.5-5.8C624.9,195.5,624.1,193.5,622.4,192.2z"/>
	</g>
	<g>
		<path class="st0" d="M582.5,81c2,0.8,4.1,1.2,6.2,1.2c2.2,0,4.3-0.4,6.2-1.2c0.6,4.3,2.8,8.2,6.2,10.8c-3.4,2.6-5.7,6.5-6.2,10.8
			c-2-0.8-4.1-1.2-6.2-1.2c-2.2,0-4.3,0.4-6.2,1.2c-0.6-4.3-2.8-8.2-6.2-10.8C579.7,89.2,582,85.3,582.5,81 M597.1,72.1
			c-1.1,0-2.2,0.3-3.1,1c-1.6,1.2-3.4,1.7-5.3,1.7c-1.9,0-3.7-0.6-5.3-1.7c-0.9-0.7-2-1-3.1-1c-0.9,0-1.8,0.2-2.6,0.7
			c-1.8,1-2.8,3-2.6,5.1c0.4,3.9-1.7,7.6-5.3,9.2c-1.9,0.8-3.1,2.7-3.1,4.8c0,2.1,1.2,3.9,3.1,4.8c3.6,1.6,5.7,5.3,5.3,9.2
			c-0.2,2.1,0.8,4,2.6,5.1c0.8,0.5,1.7,0.7,2.6,0.7c1.1,0,2.2-0.3,3.1-1c1.6-1.2,3.4-1.7,5.3-1.7c1.9,0,3.7,0.6,5.3,1.7
			c0.9,0.7,2,1,3.1,1c0.9,0,1.8-0.2,2.6-0.7c1.8-1,2.8-3,2.6-5.1c-0.4-3.9,1.7-7.6,5.3-9.2c1.9-0.8,3.1-2.7,3.1-4.8
			c0-2.1-1.2-3.9-3.1-4.8c-3.6-1.6-5.7-5.3-5.3-9.2c0.2-2.1-0.8-4-2.6-5.1C598.9,72.4,598,72.1,597.1,72.1L597.1,72.1z"/>
		<path class="st0" d="M588.8,87.9c-1,0-2.1,0.4-2.8,1.2c-0.7,0.7-1.2,1.8-1.2,2.8c0,1,0.4,2.1,1.2,2.8c0.7,0.7,1.8,1.2,2.8,1.2
			c1.1,0,2.1-0.4,2.8-1.2c0.7-0.7,1.2-1.8,1.2-2.8c0-1.1-0.4-2.1-1.2-2.8C590.8,88.3,589.8,87.9,588.8,87.9z"/>
	</g>
</g>
</svg>
