<?xml version="1.0" encoding="utf-8"?>
<!-- Generator: Adobe Illustrator 24.0.0, SVG Export Plug-In . SVG Version: 6.00 Build 0)  -->
<svg version="1.1" id="Layer_1" xmlns="http://www.w3.org/2000/svg" xmlns:xlink="http://www.w3.org/1999/xlink" x="0px" y="0px"
	 viewBox="0 0 900 399.3" style="enable-background:new 0 0 900 399.3;" xml:space="preserve">
<style type="text/css">
	.st0{fill:#FFFFFF;}
</style>
<path class="st0" d="M121.4,239.8c-1.8,6.3-3.4,12.3-4.8,18.1c-1.8,7.3-3.4,13.9-4.9,19.9c-1.5,5.8-2.5,10.5-3.1,13.9
	c-1.2,6.1-5.2,9.9-11.5,11.1c-5.5,1.1-11.3,0.6-17.4-1.3c-6-1.9-11.4-5.3-16.1-10c-5-5-7.5-11.2-7.5-18.5c0-6,1.5-15.4,4.6-28.8
	c3-13.1,7.3-28.7,12.9-46.2c5.5-17.4,12.2-36.6,19.8-57.1c6.6-17.6,13.9-35.2,21.9-52.7c2.6-5.7,8-9.6,14.3-10.4
	c14.1-1.6,26.4-1.2,36.8,1.2c6.3,1.5,9.6,8.3,7,14.1c-6.7,15-12.9,29.9-18.4,44.4c-4.5,11.8-8.7,23.4-12.8,34.7
	c-0.4,1.1,0.7,2.2,1.8,1.7c5.4-2.5,10.7-5.4,15.9-8.7c8.5-5.5,16.3-12,23.1-19.4c6.8-7.4,12.3-15.8,16.5-24.8
	c4.1-9,6.2-18.8,6.2-29.1c0-13.2-3.7-23-10.9-29c-7.3-6.1-17.6-9.2-30.6-9.2c-13.9,0-26.5,3.3-37.6,9.8C115,70.1,105.1,78.3,97,87.8
	c-8.1,9.5-14.5,19.7-19,30.3c-4.4,10.5-6.7,19.7-6.7,27.3c0,5.5-2.9,9.4-8.1,11.1c-4.6,1.5-9.7,1.3-14.9-0.7
	c-5-1.9-9.7-5.5-13.8-10.9c-4.2-5.4-6.3-12.8-6.3-21.8c0-7.9,3-17.2,9.1-28.5c6-11,14.9-21.6,26.4-31.7c11.5-10.1,25.9-18.8,43-26
	c17.2-7.2,37.1-10.9,59.1-10.9c12.5,0,25.1,1.5,37.3,4.4c12.3,2.9,23.5,7.4,33.3,13.2c9.8,5.9,17.9,13.4,24,22.1
	c6.2,8.9,9.3,19.3,9.3,31c0,12.6-2.8,24.4-8.2,35c-5.4,10.6-12.8,20.2-22.1,28.7c-9.2,8.4-20,15.8-32.3,22c-10.1,5.1-20.9,9.5-32,13
	c-0.7,0.2-1,0.6-0.9,1.3c0.2,5.6,0.6,11,1.2,16.3c0.6,6.1,1.5,12,2.5,17.6c1,5.5,2.2,10.9,3.6,16c1.1,3.9,2.3,7.8,3.5,11.4
	c0.8,2.3,1.7,4.6,2.5,6.7c1.7,4.3,3.7,8.4,5.7,12.2c2,3.7,4.2,7.3,6.5,10.6c2.2,3.2,4.6,6.2,7.1,8.9c2.4,2.6,5,5.1,7.6,7.3
	c2.6,2.1,5.3,4,8.1,5.7c2.7,1.6,5.5,3,8.4,4.2c2.8,1.1,5.8,2.1,8.8,2.7c3,0.7,6,1.1,9.1,1.3c3.1,0.2,6.3,0.1,9.5-0.1
	c3.3-0.3,6.6-0.8,9.9-1.6c3.4-0.8,6.8-1.9,10.3-3.2c3.5-1.3,7.1-2.9,10.6-4.8c1.3-0.7,2.7-1.4,4-2.2c4.4-2.5,10-1.3,12.9,2.8
	c2.9,4.1,2.3,9.8-1.5,13.1c-1.9,1.6-3.7,3.2-5.6,4.8c-4.5,3.7-9,7.1-13.4,10.2c-4.2,2.9-8.5,5.6-12.7,8c-2.1,1.2-4.3,2.4-6.6,3.5
	c-4.3,2.2-8.7,4.1-13,5.7c-4.3,1.6-8.6,2.9-12.8,4c-4.2,1-8.4,1.8-12.6,2.2c-2.9,0.3-5.9,0.5-8.8,0.5c-1.2,0-2.3,0-3.5-0.1
	c-4-0.2-8-0.6-11.8-1.4c-1.9-0.4-3.8-0.8-5.7-1.4c-1.8-0.5-3.7-1.1-5.5-1.8c-3.6-1.3-7.1-2.9-10.5-4.8c-3.3-1.8-6.6-4-9.7-6.3
	c-2.5-1.9-5-4-7.3-6.2c-2.8-2.7-5.6-5.6-8.2-8.8c-2.6-3.1-5-6.5-7.3-10c-2.3-3.5-4.5-7.3-6.5-11.1c-2-3.9-3.9-8-5.6-12.2
	c-1.7-4.2-3.3-8.6-4.7-13.2c-1.4-4.5-2.7-9.3-3.8-14.2c-1.1-4.9-2.1-10-2.9-15.2c-0.7-4.6-1.3-9.3-1.8-14.1
	C123.9,238.6,121.8,238.4,121.4,239.8"/>
<path class="st0" d="M872.6,55.8c0,20.7-16.7,37.4-37.4,37.4c-20.7,0-37.4-16.7-37.4-37.4c0-20.7,16.7-37.4,37.4-37.4
	C855.9,18.4,872.6,35.2,872.6,55.8"/>
<path class="st0" d="M864.3,206.7c-1.8-2.8-5.3-4.7-8.9-4.7c-3.4,0-6.5,1.6-8.4,4.4c-2.2,3.2-5,7-8.1,11.3
	c-3.5,4.7-7.3,9.3-11.2,13.5c-3.9,4.2-7.7,7.8-11.3,10.8c-3.7,3.1-6.1,3.7-7.5,3.7c-1,0-2.7,0-3.1-4.7c-0.4-4.9,0.3-11.3,2.2-19.1
	c1.9-7.9,4.7-16.7,8.2-26.1c3.6-9.6,7.2-18.8,10.7-27.2c3.7-8.8,6.8-16.1,9.6-22.4c2.8-6.2,4.5-10.3,5.2-12.1
	c2.2-5.1,1.4-10.2-2.4-14.6c-3.5-4.1-8.1-6.9-13.8-8.5c-5.6-1.5-11.6-1.6-17.9-0.3c-6.8,1.4-12.1,5.4-15.9,11.6
	c-3.4,5.5-7.7,14.1-13,25.7c-5.3,11.6-10.4,24.4-15.2,38.1c-2.9,8.3-5.6,16.8-8,25.4c-4,14.2-12.3,26.8-23.7,36.2
	c-4.1,3.3-8.4,6.5-12.9,9.4c-2,1.3-4,2.5-6,3.6c-0.6,0.3-1.3-0.4-0.9-1c3.5-4.5,6.8-9.5,10.2-14.7c6.8-10.8,13-23.8,18.5-38.5
	c5.8-15.6,9.4-29.8,10.7-42.3c1.4-12.6,0.9-23.6-1.4-32.7c-2.4-9.4-6.6-16.8-12.5-21.9c-6.1-5.4-13.7-8.1-22.4-8.1
	c-10.3,0-19.9,2.7-28.3,8.1c-5.7,3.7-11.1,7.8-15.9,12.3c-0.4,0.4-0.7,0.3-1-0.1c-1.1-1.7-2.5-3.3-4.3-4.8c-4.1-3.4-9-5.6-14.6-6.7
	c-5.6-1.1-11.3-0.7-16.9,1.1c-6,2-10.4,6-13.2,12c-5.4,11.6-11.1,25.2-16.9,40.3c-5.8,15.1-11.5,30.9-16.9,46.9
	c-0.6,1.8-1.2,3.6-1.8,5.3c-4.5,13.7-13.1,25.7-24.5,34.4c-3,2.3-6.1,4.5-9.3,6.6c-2,1.3-4,2.5-6,3.6c-0.6,0.3-1.3-0.4-0.9-1
	c3.5-4.5,6.8-9.5,10.2-14.7c6.8-10.8,13-23.7,18.5-38.5c5.8-15.6,9.4-29.8,10.7-42.3c1.4-12.6,0.9-23.6-1.4-32.7
	c-2.4-9.4-6.6-16.8-12.5-21.9c-6.1-5.4-13.7-8.1-22.4-8.1c-10.4,0-19.9,2.7-28.3,8.1c-5.7,3.7-11.1,7.8-15.9,12.3
	c-0.4,0.4-0.7,0.3-1-0.1c-1.1-1.7-2.5-3.3-4.3-4.8c-4.1-3.4-9-5.6-14.6-6.7c-5.6-1.1-11.3-0.7-16.9,1.1c-6,2-10.4,6-13.2,12
	c-5.4,11.6-11.1,25.2-16.9,40.3c-5.5,14.2-10.8,28.9-15.8,43.8c-3.8,11.2-9.5,20.3-18,28.6c-2.2,2.1-4.3,4.1-6.4,5.8
	c-3.7,3.1-6.1,3.7-7.5,3.7c-1,0-2.7,0-3.1-4.7c-0.4-4.9,0.3-11.3,2.2-19c1.9-7.9,4.7-16.7,8.2-26.1c3.6-9.5,7.2-18.7,10.7-27.2
	c3.6-8.6,6.8-16.2,9.6-22.4c2.8-6.4,4.6-10.3,5.2-12.1c2.2-5.1,1.4-10.2-2.4-14.6c-3.5-4.1-8.2-6.9-14.1-8.5
	c-5.7-1.5-11.8-1.6-17.9-0.2c-6.6,1.5-11.9,5.4-15.7,11.6c-0.8,1.2-1.6,2.6-2.4,4.1c-0.3,0.5-1.1,0.4-1.2-0.2
	c-0.7-3.4-1.9-6.6-3.5-9.6c-2.4-4.5-5.9-8.1-10.5-10.9c-4.7-2.8-10.6-4.2-17.6-4.2c-16.5,0-33.3,7.6-49.9,22.7
	c-16.2,14.8-29.7,38.4-40,70.1c-4.8,15.3-7.7,29.5-8.4,42.1c-0.8,12.8,0.3,23.8,3.1,32.7c2.9,9.2,7.5,16.5,13.7,21.6
	c6.4,5.3,14.1,8,22.8,8c6.5,0,12.6-1.1,18.3-3.3c5.5-2.1,10.7-4.9,15.2-8.2c3.5-2.5,6.8-5.4,9.8-8.5c2.1-2.2,5.9-1.3,6.7,1.6
	c1,3.3,2.3,6.3,4.1,8.8c4.3,6.3,11.2,9.5,20.3,9.5c10.2,0,20.4-3.8,30.5-11.3c4.7-3.5,9.3-7.3,13.7-11.4c1-0.9,2.6,0.1,2.2,1.4
	c-2.6,8.6-4.9,16.6-7,24.1c-3.5,12.6-6.4,23.5-8.6,32.3c-2.9,11.8-3.2,15-3.2,16.5c0,7.3,2.3,13.4,6.7,18.4
	c4.3,4.8,9.3,8.2,14.8,10.1c3.6,1.3,7.2,1.9,10.6,1.9c1.9,0,3.7-0.2,5.5-0.6c4-0.9,9-3.5,10.5-11l0-0.1c0.6-4,1.7-9.3,3.3-15.9
	c1.7-6.9,3.7-14.7,6-23.2c2.3-8.5,4.9-18,8.1-28.9c1.4-5.1,3-10.4,4.6-15.9c0.3-1.1,1.9-1.3,2.4-0.3c0.7,1.3,1.5,2.5,2.4,3.7
	c5.1,6.8,13.1,10.2,24,10.2c2.2,0.1,4.4,0.1,6.5,0.1h0c15.9,0,30.9-2.7,44.5-8.1c13-5.2,24.9-11.4,35.5-18.7c1-0.7,2.4,0.3,2,1.5
	c-3,10-5.8,19.4-8.2,28c-3.6,12.7-6.4,23.6-8.6,32.3c-2.9,11.9-3.2,15.1-3.2,16.5c0,7.3,2.3,13.4,6.7,18.4
	c4.3,4.8,9.3,8.2,14.8,10.1c3.6,1.3,7.2,1.9,10.6,1.9c1.9,0,3.7-0.2,5.5-0.6c4-0.9,9-3.5,10.5-11l0-0.1c0.6-4,1.7-9.3,3.3-15.9
	c1.7-6.9,3.7-14.7,6-23.2c2.3-8.5,5-18,8.1-28.9c1.4-5.1,3-10.4,4.6-15.9c0.3-1.1,1.9-1.3,2.4-0.3c0.7,1.3,1.5,2.5,2.4,3.7
	c5,6.8,13.1,10.2,24,10.2c2.2,0.1,4.4,0.1,6.5,0.1h0c15.9,0,30.9-2.7,44.5-8.1c15.2-6,29-13.6,40.9-22.6c2-1.5,4-3.1,5.9-4.6
	c0.9-0.7,2.2-0.1,2.2,1.1c0,0.5,0,1,0,1.5c0,9.5,2,17.3,5.9,23.1c4.3,6.3,11.2,9.5,20.3,9.5c10.1,0,20.5-3.8,30.7-11.3
	c9.7-7.1,18.9-15.5,27.3-25c8.3-9.4,15.5-18.7,21.6-27.7c6.1-9.1,10.3-15.4,12.6-19.1C866,212.7,866.1,209.4,864.3,206.7 M346.8,158
	c-0.7,6.7-2.1,14.3-4.2,22.7c-2.1,8.3-4.9,17.1-8.4,26.1c-3.5,9-7.2,17.4-11.1,25c-3.8,7.5-7.6,13.9-11.4,19c-3.7,5-7.1,8.7-10.3,11
	c-2.3,1.7-3.6,1.9-4,1.9c-0.2,0-0.4,0-0.6-0.1c-0.4-0.2-1.9-1.2-2.6-5.7c-0.7-4.2-0.8-9.6-0.2-16c0.6-6.6,1.9-14.1,4-22.4
	c2-8.3,4.9-17.1,8.4-26.1c3.6-9.1,7.3-17.5,11.1-25c3.8-7.5,7.6-13.9,11.4-19.2c3.7-5.1,7.1-8.8,10.2-11.2c2.3-1.7,3.6-1.9,4.1-1.9
	c0.2,0,0.4,0,0.5,0.1c0.4,0.2,2,1.2,2.9,5.8C347.5,146,347.5,151.4,346.8,158 M528,158.4c-1.2,6.6-3,14.2-5.5,22.5
	c-2.5,8.4-5.7,17.2-9.5,26.1c-4.1,9-8.4,17.5-12.7,25.1c-4.2,7.5-8.5,14-12.5,19.2c-4,5.1-7.6,8.9-10.9,11.2c-2.5,1.8-3.8,2-4.3,2
	c-0.2,0-0.4,0-0.6-0.1c-0.4-0.2-1.8-1.1-2.4-5.6c-0.6-4.1-0.3-9.5,0.9-16.1c1.2-6.7,3-14.4,5.5-22.7c2.5-8.3,5.7-17.1,9.5-26.2
	c3.8-9,8-17.4,12.4-24.9c4.4-7.6,8.7-14,12.7-19c4-5,7.6-8.7,10.9-11.1c2.5-1.8,3.8-2,4.3-2c0.2,0,0.4,0,0.6,0.1
	c0.4,0.2,1.8,1.1,2.4,5.6C529.4,146.6,529.1,152,528,158.4 M695.4,158.4c-1.2,6.6-3,14.2-5.5,22.5c-2.5,8.4-5.7,17.2-9.5,26.1
	c-4.1,9-8.4,17.5-12.7,25.1c-4.2,7.5-8.5,14-12.5,19.2c-4,5.1-7.6,8.9-10.9,11.2c-2.5,1.8-3.8,2-4.3,2c-0.2,0-0.4,0-0.6-0.1
	c-0.4-0.2-1.8-1.1-2.4-5.6c-0.6-4.1-0.3-9.5,0.9-16.1c1.2-6.7,3-14.4,5.5-22.7c2.5-8.3,5.7-17.1,9.5-26.2c3.8-9,8-17.4,12.4-24.9
	c4.4-7.6,8.7-14,12.7-19c3.9-5,7.6-8.7,10.9-11c2.5-1.8,3.8-2,4.3-2c0.2,0,0.4,0,0.6,0.1c0.4,0.2,1.8,1.1,2.4,5.6
	C696.9,146.6,696.6,152,695.4,158.4"/>
</svg>
