<?xml version="1.0" encoding="utf-8"?>
<!-- Generator: Adobe Illustrator 24.0.0, SVG Export Plug-In . SVG Version: 6.00 Build 0)  -->
<svg version="1.1" id="Capa_1" xmlns="http://www.w3.org/2000/svg" xmlns:xlink="http://www.w3.org/1999/xlink" x="0px" y="0px"
	 viewBox="0 0 419.8 241.2" style="enable-background:new 0 0 419.8 241.2;" xml:space="preserve">
<style type="text/css">
	.st0{fill-rule:evenodd;clip-rule:evenodd;fill:#FFFFFF;}
</style>
<g>
	<path class="st0" d="M412,11.9h-30.8l-1,4.7c-2.4,11-4.6,22.7-7.1,33.6l-6.2-1c-10.4-1.3-20.3,1.3-28.7,6.9l-4.3,3
		c-2.7,2-5.5,4.5-7.8,6.8c-0.7,0.7-1,1.2-1.7,1.9c-2.6,2.5-6.1,7.3-8,10.3c-3.7,5.6-7.4,12.4-9.7,19.4c-2.2,6.8-4.6,16.7-2.5,25.1
		c1.9,7.3,6.7,13.2,13.8,15.4c7.2,2.1,19.3-0.8,24.4-3.2c5.6-2.7,12.8-7.5,15.9-13.3h1.5c0,1.8-3.5,13.6-3.6,15.1h30.6l15.8-77.8
		c1-5.3,2-10.3,3.2-15.6L412,11.9z"/>
</g>
<path class="st0" d="M244.8,138.7c13.8,0,25.8-4.7,36.4-12.8c0.7-0.6,1.4-1.2,2.1-1.7c3.2-2.5,6.8-6.4,9.3-9.6
	c2.7-3.5,5.4-7.6,7.4-11.5c3.3-6.7,6.5-16,6.5-23.9c0-7.2-0.7-11.9-4.9-17.6c-1.5-2-3.9-4.4-5.9-5.8c-1.6-1.1-3-2-4.8-2.9
	c-5.4-2.6-12.8-4.4-18.8-4.4c-9.7,0-14.3,0.6-23.4,3.9c-1.9,0.7-6,2.6-7.8,3.7c-12.4,7.4-21,17-27.2,31c-1.3,2.8-2.1,5.5-3,8.5
	c-0.9,2.9-1.4,6.5-1.9,9.8l-0.2,5.4c0.6,5.5,1,8.5,4.2,13.4c4.7,7.1,13.4,11.7,21.6,13.3C237.5,138.2,241.1,138.7,244.8,138.7z"/>
<path class="st0" d="M147.8,138.7c13.8,0,25.8-4.7,36.4-12.8c4-3,8.3-7.4,11.4-11.4c5.2-6.6,9.4-14.2,11.7-22.3
	c2.9-10.3,3.9-21.7-2.7-30.7c-2.7-3.6-6.7-6.7-10.7-8.6c-0.9-0.4-1.7-0.8-2.7-1.1l-2.8-1c-8.7-2.8-18.6-2.9-27.6-1.1
	c-5.3,1.1-10.3,2.9-14.9,5.3l-3.7,2c-0.6,0.4-1.1,0.8-1.8,1.2c-1.3,0.8-2.3,1.5-3.5,2.5c-8.8,6.9-15.4,15.5-20.2,26.4
	c-1.3,2.8-2.1,5.5-3,8.5c-0.9,2.9-1.4,6.5-1.9,9.8l-0.2,5.4c0.6,5.5,1,8.5,4.2,13.4c2.4,3.7,5.2,6,8.9,8.3
	C130.9,136.6,140.2,138.7,147.8,138.7z"/>
<path class="st0" d="M73,50.2H62.1l-2.5,13c-0.2,1-0.6,3.8-0.9,4.4h10.6l-4.7,23.2c-0.3,2-0.8,3.8-1.2,5.8c-0.4,2.1-0.7,3.9-1.2,5.9
	L60,114.3c-1.4,6.8-3.5,16.6-4.7,23.2l-4.7,23.4h31.1c0-1.5,0.8-4.3,1-5.8l17.5-87.6h22.5l2.6-12.9c0.3-1.3,0.8-3,0.8-4.5h-22.8
	c0.1-1.1,0.4-2.6,0.6-3.6c0.6-3.8,1.4-6.7,3.2-10c1.9-3.5,6-6.2,11.5-6.2c5.9,0,11,0.2,16.5,2c1.2,0.4,2.9,1.3,4,1.4l3.6-18.1
	c-1.1-0.5-3-1-4.4-1.4c-1.7-0.4-3.1-0.8-4.9-1.1c-3.5-0.6-7.2-1-10.9-1.2h-3.9c-6.1,0.2-12.1,1.3-17.4,3.6
	c-4.3,1.9-9.6,4.8-12.9,8.1c-3.1,3.2-4.5,4.2-7.2,8.3C77.4,37.5,74.6,43.3,73,50.2z"/>
<path class="st0" d="M242.9,176.6c-0.6,0.8-2.4,2.4-3.4,3.2l-1.8,1.4c-4.3,3.4-6.9,5.2-11.7,8.1l-6.5,3.5c-1.7,0.7-2.8,1.4-4.5,2.1
	c-11.2,4.7-18.4,7.2-31,9l-12.2,0.9l-6.4-0.4c-8.7-1.1-12.6-1.5-21.5-5.1c-8.4-3.4-17.8-9.2-24.2-15.6c-1.1-1.2-2.1-2.1-3.3-3.3
	c-4.9-4.9-9.2-11.4-12.3-17.7c-1.2-2.4-0.2-2.1-3-2.1c0,1.1,0.5,2.7,0.7,3.7c1.8,8.1,5.1,16.4,9.3,23.3c1.2,1.9,2.3,3.7,3.5,5.6
	l4,5.3c1.8,2.3,7,7.9,9.1,9.6c5.3,4.5,7.2,6.1,13.3,9.7c11.3,6.8,25.6,11,40.3,11c16.8,0,23.9-0.8,39.5-5.2c1.5-0.4,3.2-1,4.8-1.6
	c4.2-1.4,9.5-3.7,13.3-5.6c0.7-0.4,1.3-0.7,1.9-1.1c3.7-2.2,5.9-3.1,9.9-5.8l5.6-4c1.5-1,4.2-3.6,5.4-4.2l4.5,12.8
	c0.8,2.1,1.5,4.3,2.3,6.5c0.4,1.1,0.8,2.1,1.1,3.1c0.3,1,1,2.3,1.1,3.4h0.4c0-1.3,10.4-53,12.3-62.4c0.2-1,0.6-3.6,0.9-4.2
	c-0.9,0-1.5-0.2-2.8-0.2h-46.6c-1.4,0-12.1-0.2-12.1-0.2c-0.7,0.2-0.4,0.3,0,0.6l16.7,12.7c0.7,0.5,1.1,0.9,1.8,1.4
	C241.8,175.6,242.5,176,242.9,176.6z"/>
<path class="st0" d="M7.9,136.6h30.8l2.1-10.7c0.7-3.6,1.4-7.3,2.1-10.8L51.5,72c0.3-1.7,0.7-3.5,1-5.3l3.2-16.4H25.1l-3.2,15.9
	C19.8,76.7,7.9,135.1,7.9,136.6z"/>
<path class="st0" d="M27.9,37.1h30c0.9,0,1.4-4.3,1.8-5.9l3.8-19.2H33.2c-0.9,0.2-0.5,0.2-1,2.6l-3.8,19.1
	C28.2,34.8,27.9,36,27.9,37.1z"/>
</svg>
