<?xml version="1.0" encoding="utf-8"?>
<!-- Generator: Adobe Illustrator 24.0.0, SVG Export Plug-In . SVG Version: 6.00 Build 0)  -->
<svg version="1.1" id="Capa_1" xmlns="http://www.w3.org/2000/svg" xmlns:xlink="http://www.w3.org/1999/xlink" x="0px" y="0px"
	 viewBox="0 0 60.1 60.1" style="enable-background:new 0 0 60.1 60.1;" xml:space="preserve">
<style type="text/css">
	.st0{fill:#FFFFFF;}
</style>
<g>
	<path class="st0" d="M0,48.9c0-1.7,1.3-3,3-3h40.2c1.7,0,3,1.3,3,3s-1.3,3-3,3H3C1.3,51.9,0,50.6,0,48.9z"/>
	<path class="st0" d="M0,30.1c0-1.7,1.3-3,3-3h40.2c1.7,0,3,1.3,3,3c0,1.7-1.3,3-3,3H3C1.3,33.1,0,31.7,0,30.1z"/>
	<path class="st0" d="M0,11.2c0-1.7,1.3-3,3-3h40.2c1.7,0,3,1.3,3,3s-1.3,3-3,3H3C1.3,14.2,0,12.9,0,11.2z"/>
	<circle class="st0" cx="56.1" cy="11.5" r="4"/>
	<circle class="st0" cx="56.1" cy="30.1" r="4"/>
	<circle class="st0" cx="56.1" cy="48.7" r="4"/>
</g>
</svg>
